<mxfile host="app.diagrams.net" modified="2021-12-08T02:32:04.798Z" agent="5.0 (Macintosh; Intel Mac OS X 10_15_7) AppleWebKit/537.36 (KHTML, like Gecko) Chrome/96.0.4664.55 Safari/537.36" etag="itVh8-K3GFJCKicU5Afy" version="15.9.1" type="github">
  <diagram id="bT_RvdWp8NG1J4fWEcfj" name="Page-1">
    <mxGraphModel dx="946" dy="621" grid="1" gridSize="10" guides="1" tooltips="1" connect="1" arrows="1" fold="1" page="1" pageScale="1" pageWidth="827" pageHeight="1169" math="0" shadow="0">
      <root>
        <mxCell id="0" />
        <mxCell id="1" parent="0" />
        <mxCell id="R1089J_MRiyUl4vDYddP-4" style="edgeStyle=orthogonalEdgeStyle;rounded=0;orthogonalLoop=1;jettySize=auto;html=1;entryX=0.5;entryY=0;entryDx=0;entryDy=0;" edge="1" parent="1" source="R1089J_MRiyUl4vDYddP-1" target="R1089J_MRiyUl4vDYddP-3">
          <mxGeometry relative="1" as="geometry" />
        </mxCell>
        <mxCell id="R1089J_MRiyUl4vDYddP-1" value="模型" style="shape=module;align=left;spacingLeft=20;align=center;verticalAlign=top;" vertex="1" parent="1">
          <mxGeometry x="100" y="230" width="100" height="50" as="geometry" />
        </mxCell>
        <mxCell id="R1089J_MRiyUl4vDYddP-2" value="数据集" style="shape=module;align=left;spacingLeft=20;align=center;verticalAlign=top;" vertex="1" parent="1">
          <mxGeometry x="100" y="50" width="100" height="50" as="geometry" />
        </mxCell>
        <mxCell id="R1089J_MRiyUl4vDYddP-3" value="模型图谱" style="shape=module;align=left;spacingLeft=20;align=center;verticalAlign=top;" vertex="1" parent="1">
          <mxGeometry x="100" y="410" width="100" height="50" as="geometry" />
        </mxCell>
        <mxCell id="R1089J_MRiyUl4vDYddP-5" value="样本识别" style="ellipse;whiteSpace=wrap;html=1;" vertex="1" parent="1">
          <mxGeometry x="520" y="40" width="140" height="70" as="geometry" />
        </mxCell>
        <mxCell id="R1089J_MRiyUl4vDYddP-6" value="零样本识别" style="ellipse;whiteSpace=wrap;html=1;" vertex="1" parent="1">
          <mxGeometry x="520" y="220" width="140" height="70" as="geometry" />
        </mxCell>
        <mxCell id="R1089J_MRiyUl4vDYddP-7" value="小样本识别" style="ellipse;whiteSpace=wrap;html=1;" vertex="1" parent="1">
          <mxGeometry x="520" y="400" width="140" height="70" as="geometry" />
        </mxCell>
      </root>
    </mxGraphModel>
  </diagram>
</mxfile>
